<svg width="572" height="369" viewBox="0 0 572 369" fill="none" xmlns="http://www.w3.org/2000/svg">
<g clip-path="url(#clip0_1_219)">
<path opacity="0.16" d="M268.646 304.268C264.454 304.837 73.5734 330.744 20.3268 200.739C-42.1032 48.3231 50.5699 21.8802 145.953 46.2865C241.335 70.6929 323.853 47.1111 381.803 25.9534C439.752 4.79572 460.12 -10.9447 512.321 19.4643C569.332 52.652 643.119 253.881 268.646 304.268Z" fill="#EC6724"/>
<path opacity="0.2" d="M572 331.272C572 338.487 512.618 344.333 439.357 344.333C366.097 344.333 306.755 338.487 306.755 331.272C306.755 324.057 366.146 318.211 439.357 318.211C512.568 318.211 572 324.057 572 331.272Z" fill="#66ACFF"/>
<path d="M524.338 326.614L500.453 329.31C493.929 330.043 487.365 330.357 480.801 330.25C464.494 329.978 441.96 324.717 434.506 326.358C404.164 333.02 346.89 331.676 346.89 331.676L348.076 321.518L348.9 314.303C348.9 314.303 356.724 313.957 367.291 313.355C386.563 312.258 414.953 310.312 421.649 308.111C423.404 307.542 426.756 306.676 431.113 305.637C452.444 300.55 497.826 291.315 497.826 291.315L524.338 326.614Z" fill="#2E53BC"/>
<path d="M431.162 305.637C429.515 306.833 427.588 307.798 426.41 308.556C422.737 311.075 418.838 313.248 414.764 315.045C410.308 316.859 405.539 317.766 401.092 319.589C396.892 321.312 393.045 323.827 388.795 325.41C384.117 327.166 379.085 327.743 374.102 328.114C365.476 328.75 356.817 328.814 348.183 328.304C347.907 328.288 347.632 328.258 347.359 328.213L348.134 321.518C352.705 318.574 357.877 316.653 363.024 314.856C364.474 314.345 365.915 313.85 367.365 313.355C386.638 312.258 415.027 310.313 421.723 308.111C423.453 307.542 426.805 306.676 431.162 305.637Z" fill="#284C8C"/>
<path d="M506.893 257.08C507.173 262.102 504.752 266.892 501.746 270.916C498.74 274.94 495.107 278.493 492.373 282.707C491.385 284.232 490.536 286.327 491.648 287.77C492.246 288.43 493.056 288.859 493.938 288.982C497.232 289.641 500.617 288.256 503.574 286.615C510.987 282.493 517.37 276.506 521.224 269.003C523.111 265.613 524.116 261.802 524.148 257.921C524.041 254.062 522.501 250.138 519.445 247.755C516.736 245.611 511.588 244.597 508.409 246.444C504.637 248.62 506.696 253.634 506.893 257.08Z" fill="#F18912"/>
<path opacity="0.22" d="M512.206 258.581C510.246 262.786 510.418 267.741 508.458 271.938C506.062 277.083 500.848 280.357 497.932 285.213C497.173 286.37 496.719 287.7 496.615 289.081C496.575 289.77 496.716 290.457 497.024 291.075C497.332 291.692 497.795 292.219 498.369 292.601C499.152 292.995 500.022 293.185 500.897 293.154C506.029 293.228 510.863 290.68 514.899 287.563C523.308 281.033 529.386 271.204 530.268 260.584C530.564 257.006 529.592 247.845 524.354 247.952C520.03 248.002 513.886 254.945 512.206 258.581Z" fill="#D38C0D"/>
<path d="M508.096 291.958C508.096 291.958 455.442 266.628 445.798 267.428C436.153 268.228 369.819 307.921 369.819 307.921L383.903 319.465C383.903 319.465 428.378 303.799 443.557 299.635C456.29 296.122 508.088 325.327 519.618 326.581C531.149 327.834 550.71 319.267 550.71 319.267L508.096 291.958Z" fill="#6478FF"/>
<path d="M474.295 274.816L468.464 273.299C468.13 273.188 467.769 273.188 467.435 273.297C467.1 273.406 466.809 273.62 466.605 273.906C466.401 274.193 466.293 274.538 466.299 274.89C466.304 275.242 466.422 275.583 466.635 275.863C468.151 278.012 469.99 279.911 472.087 281.495C480.324 288.149 489.606 293.525 499.753 296.427C501.597 296.963 500.716 286.599 500.477 285.758C499.753 283.185 498.509 279.335 495.865 278.123C493.501 277.034 489.927 277.751 487.407 277.504C482.972 276.959 478.587 276.06 474.295 274.816Z" fill="#FFB000"/>
<g opacity="0.54">
<path opacity="0.22" d="M482.506 282.394C485.879 281.055 489.133 279.433 492.233 277.545C490.586 277.545 488.823 277.685 487.407 277.545C486.74 277.479 486.064 277.397 485.397 277.298C483.832 278.617 482.465 280.357 482.506 282.394Z" fill="#D38C0D"/>
<path opacity="0.22" d="M500.477 285.791C499.753 283.218 498.509 279.367 495.865 278.155C495.369 277.934 494.846 277.782 494.309 277.702C492.768 280.439 491.014 283.053 488.379 284.752C487.555 285.288 486.558 285.939 486.641 286.912C486.698 287.695 487.464 288.207 487.901 288.85C488.182 289.314 488.356 289.836 488.411 290.376C488.467 290.916 488.402 291.462 488.222 291.975C491.923 293.814 495.782 295.315 499.753 296.46C501.597 296.963 500.716 286.615 500.477 285.791Z" fill="#D38C0D"/>
</g>
<path d="M559.835 241.348C561.483 249.981 560.124 258.886 558.476 267.519C556.829 276.152 554.869 284.834 555.281 293.624C555.437 296.922 555.931 300.22 555.758 303.518C555.535 306.815 554.799 310.056 553.576 313.124C551.566 318.401 548.28 323.513 543.248 326.069C541.214 327.029 539.062 327.713 536.848 328.106C528.549 329.741 520.008 329.718 511.718 328.04C503.427 326.362 495.548 323.061 488.535 318.327C484.483 315.557 480.554 312.242 476.321 309.818C475.458 309.331 474.739 308.626 474.234 307.773C473.73 306.92 473.458 305.949 473.446 304.957C473.435 303.966 473.683 302.989 474.168 302.124C474.652 301.26 475.355 300.538 476.205 300.031C482.459 296.295 489.159 293.364 496.145 291.307C499.349 290.367 502.676 289.584 505.444 287.72C511.604 283.597 513.392 275.459 514.454 268.113C515.517 260.766 516.711 252.686 522.311 247.829C524.906 245.586 540.307 224.528 543.223 222.714C546.344 220.776 548.387 222.458 550.94 224.75C555.717 229.013 558.658 235.131 559.835 241.348Z" fill="#FFB000"/>
<path opacity="0.22" d="M541.098 315.276C540.003 316.884 538.965 318.797 537.104 319.325C534.633 320.034 531.956 317.857 529.477 318.607C528.019 319.044 527.006 320.388 525.672 321.081C523.547 322.169 520.895 321.485 518.646 322.326C516.101 323.282 514.849 325.74 514.248 328.51C521.744 329.738 529.399 329.607 536.848 328.123C539.062 327.73 541.214 327.045 543.248 326.086C548.28 323.53 551.566 318.418 553.576 313.141C554.408 311.043 555.034 308.87 555.445 306.652C554.704 306.783 553.979 306.907 553.279 307.064C548.324 308.152 543.969 311.089 541.098 315.276Z" fill="#D38C0D"/>
<path d="M476.329 306.709C484.631 300.583 495.684 299.453 504.398 293.929C511.592 289.32 516.672 282.049 518.531 273.703C519.239 270.471 519.445 267.107 520.615 264.006C522.262 259.546 525.795 256.074 528.694 252.29C532.054 247.902 534.67 242.991 536.436 237.753C537.902 233.408 538.907 228.683 542.062 225.385" stroke="#F18912" stroke-width="0.82" stroke-miterlimit="10"/>
<path opacity="0.22" d="M543.355 227.727C540.571 229.541 538.94 232.674 537.589 235.7C535.187 241.447 533.4 247.434 532.261 253.559C531.626 256.858 531.14 260.205 529.979 263.355C528.818 266.505 526.866 269.498 523.975 271.196C520.458 273.266 516.068 273.159 512.082 272.293C511.171 272.038 510.228 271.916 509.282 271.93C505.987 272.194 504.175 276.358 505.254 279.458C506.333 282.558 509.372 284.579 512.411 285.791C517.858 287.934 523.858 288.224 529.485 286.615C532.515 285.828 535.283 284.252 537.507 282.047C539.566 279.87 540.801 277.1 542.037 274.338C545.095 267.434 548.154 260.535 551.212 253.642C553.016 249.577 554.836 245.438 555.412 241.018C556.31 234.389 552.102 222.013 543.355 227.727Z" fill="#D38C0D"/>
<path d="M496.005 271.633C496.005 271.633 494.152 270.586 491.269 266.571C488.387 262.555 485.636 261.294 483.651 259.084C481.666 256.874 478.783 253.675 479.319 256.684C479.854 259.694 483.437 262.967 480.875 262.671C478.314 262.374 470.012 254.277 468.472 254.631C466.479 255.093 474.748 265.35 480.686 272.013C486.624 278.675 486.698 278.411 493.04 281.346C499.382 284.282 512.041 276.045 496.005 271.633Z" fill="#FCB4D2"/>
<path d="M501.952 192.676C501.721 194.325 501.952 196.048 501.276 197.557C500.321 199.692 497.669 201.061 497.611 203.403C497.554 205.934 500.551 207.41 501.466 209.776C502.767 213.075 499.547 216.645 499.884 220.215C500.178 221.848 500.843 223.391 501.828 224.725C501.993 224.989 502.199 225.286 502.512 225.327C502.67 225.321 502.826 225.282 502.968 225.21C503.11 225.139 503.235 225.039 503.335 224.915C504.892 223.439 506.383 221.708 508.45 221.106C510.147 220.611 511.958 220.957 513.721 221.031C515.484 221.106 517.477 220.776 518.539 219.382C519.363 218.253 519.42 216.727 519.363 215.309C519.313 213.6 519.214 211.901 519.066 210.213C518.96 208.265 518.569 206.343 517.905 204.508C516.97 202.48 515.74 200.602 514.256 198.934L508.886 192.263C506.753 189.518 502.652 187.737 501.952 192.676Z" fill="#6478FF"/>
<path d="M515.978 214.402C515.978 214.402 521.974 219.778 521.34 225.401C520.409 233.713 536.544 220.347 536.544 220.347L524.23 205.332L515.978 214.402Z" fill="#FCB4D2"/>
<path d="M519.717 219.003C519.717 219.003 524.025 218.319 526.215 215.342C526.215 215.342 526.322 218.896 521.109 222.392L519.717 219.003Z" fill="#FC86BC"/>
<path d="M515.261 187.555C515.261 187.555 505.814 190.458 505.436 196.757C505.057 203.056 511.127 220.718 518.169 219.712C525.211 218.706 528.126 213.231 530.737 209.257C541.765 192.486 523.135 182.723 515.261 187.555Z" fill="#FCB4D2"/>
<path d="M502.998 261.928C503.253 262.646 503.624 263.462 504.365 263.577C504.659 263.591 504.952 263.535 505.221 263.415C505.49 263.295 505.727 263.113 505.913 262.885C507.42 261.401 508.195 259.24 509.85 257.938C510.805 257.281 511.841 256.749 512.93 256.354C518.391 254.022 523.12 250.256 526.619 245.454C527.524 244.051 528.552 242.732 529.691 241.513C530.897 240.49 532.171 239.55 533.504 238.701C537.214 236.01 540.045 232.281 541.642 227.982C542.202 226.717 542.393 225.319 542.193 223.95C541.914 222.955 541.361 222.059 540.598 221.362C539.835 220.665 538.893 220.197 537.878 220.009C535.835 219.669 533.738 219.93 531.841 220.759C528.472 222.054 525.408 224.239 521.85 224.882C517.963 225.558 513.696 224.321 510.147 226.061C505.205 228.493 501.754 237.217 500.181 242.263C498.122 248.826 500.832 255.794 502.998 261.928Z" fill="#02132B"/>
<path d="M521.834 224.222C523.67 223.48 525.202 222.153 526.775 221.015C530.454 218.436 534.685 216.756 539.13 216.109C541.757 215.73 545.158 216.2 545.941 218.739C546.083 219.458 546.067 220.2 545.893 220.912C545.72 221.624 545.393 222.289 544.936 222.862C543.198 225.435 540.538 227.216 538.57 229.615C537.245 231.44 536.016 233.334 534.888 235.288C531.176 240.916 525.682 245.133 519.289 247.26C515.673 248.456 511.679 248.909 508.079 247.681C504.48 246.452 501.416 243.179 501.219 239.369C501.087 236.805 502.207 234.356 503.368 232.064C504.53 229.772 505.963 227.232 508.046 225.517C512.898 221.559 516.95 226.193 521.834 224.222Z" fill="#042956"/>
<path d="M552.596 288.973C549.664 292.222 546.369 295.297 542.35 297.029C537.639 299.049 532.351 299.049 527.228 298.901C512.708 298.472 497.479 296.823 485.553 288.52C487.609 282.546 490.357 276.835 493.74 271.501C494.004 270.982 494.421 270.556 494.934 270.281C495.589 270.111 496.282 270.175 496.895 270.462C499.151 271.213 501.424 271.889 503.722 272.507C507.105 273.425 510.52 274.187 513.968 274.791C516.604 275.253 519.253 275.632 521.916 275.929C523.851 276.135 525.886 276.292 527.681 275.591C531.346 274.165 532.763 270.067 533.529 266.051C533.685 265.284 533.801 264.526 533.908 263.784C534.015 263.042 534.147 262.176 534.278 261.376C535.272 254.994 536.513 248.659 538.001 242.37C539.154 237.481 540.596 232.369 544.211 228.889C549.977 223.365 553.938 224.181 559.539 234.001C564.241 242.205 560.387 280.332 552.596 288.973Z" fill="#F18912"/>
<path opacity="0.15" d="M537.762 273.86C535.671 276.267 532.887 277.982 530.902 280.505C529.609 282.154 528.587 284.109 526.726 285.007C524.354 286.145 521.562 285.09 519.149 284.01C513.672 281.536 508.03 278.823 504.422 274.024C504.05 273.596 503.807 273.069 503.722 272.507C507.105 273.425 510.52 274.187 513.968 274.791C516.604 275.253 519.253 275.632 521.916 275.929C523.852 276.135 525.886 276.292 527.681 275.591C531.346 274.165 532.763 270.067 533.529 266.051C533.686 265.284 533.801 264.526 533.908 263.784C534.015 263.042 534.147 262.176 534.279 261.376C539.624 262.184 542.268 268.648 537.762 273.86Z" fill="#D38C0D"/>
<path d="M350.365 307.006C347.853 305.72 346.173 303.032 343.488 302.183C342.919 301.961 342.29 301.943 341.709 302.133C340.523 302.628 340.334 304.211 340.433 305.489C340.868 310.118 342.666 314.515 345.598 318.121C348.53 321.727 352.465 324.381 356.905 325.748C358.824 326.3 361.608 324.989 362.448 326.811C362.909 327.801 358.429 332.732 359.079 333.614C360.356 335.354 366.978 332.534 368.847 331.462L375.033 327.9C376.029 327.323 382.939 322.029 383.582 321.064C384.32 319.768 384.552 318.243 384.232 316.785C383.714 313.413 381.959 310.387 380.238 307.443C378.162 303.889 375.996 301.729 371.359 303.881C366.887 305.975 359.829 311.846 350.365 307.006Z" fill="#02132B"/>
<path d="M336.652 306.066C333.471 302.725 331.236 298.595 330.179 294.102C329.874 292.873 329.47 291.422 328.276 291.002C327.803 290.881 327.305 290.904 326.845 291.067C326.384 291.23 325.983 291.526 325.69 291.917C325.121 292.714 324.73 293.626 324.545 294.588C323.209 299.796 322.523 305.15 322.503 310.527C322.405 312.314 322.653 314.103 323.236 315.796C324.817 319.745 329.355 321.872 331.035 325.781C331.392 326.521 331.532 327.347 331.439 328.164C331.2 329.623 326.415 330.967 326.678 332.427C327 334.15 332.65 334.62 334.396 334.702C338.035 334.894 341.685 334.7 345.284 334.125C347.071 333.845 349.007 333.375 350.094 331.924C351.033 330.67 351.107 328.996 351.14 327.43C351.222 323.934 352.499 314.237 349.064 312.036C347.598 311.096 344.996 311.211 343.299 310.568C340.802 309.533 338.541 308.001 336.652 306.066Z" fill="#02132B"/>
<path d="M454.083 236.986L456.414 235.106L463.884 244.16L482.276 238.982L482.407 242.222L462.081 247.079L454.083 236.986Z" fill="white"/>
<path d="M464.741 246.065L482.407 242.222L508.178 265.647L490.125 270.182L464.741 246.065Z" fill="#FF5D00"/>
<path d="M453.836 237.093L463.011 248.002" stroke="#FF5D00" stroke-width="1.65" stroke-miterlimit="10"/>
<path d="M464.741 246.065C464.155 246.554 463.437 246.86 462.678 246.944C461.92 247.028 461.153 246.885 460.474 246.535L487.909 271.444L490.133 270.182L464.741 246.065Z" fill="#DD4D05"/>
<path d="M482.276 238.982L508.45 262.629L508.178 265.647L482.407 242.222L482.276 238.982Z" fill="#F2F2F2"/>
<path d="M510.97 191.167C513.136 191.587 514.545 192.28 515.377 194.325C516.101 196.106 516.2 198.225 517.477 199.626C519.841 202.166 524.832 200.896 526.726 203.807C527.731 205.349 527.327 207.41 526.627 209.117C525.927 210.824 524.922 212.473 524.823 214.311C524.683 216.785 526.199 219.053 527.895 220.867C528.241 221.238 528.719 221.625 529.189 221.419C529.429 221.268 529.621 221.05 529.74 220.792C531.272 218.244 534.542 217.23 537.515 217.354C539.797 217.453 542.506 217.939 544.022 216.224C545.15 214.938 545.027 212.926 545.883 211.467C547.39 208.82 551.253 208.655 553.403 206.52C553.613 206.343 553.782 206.122 553.897 205.872C554.012 205.623 554.071 205.351 554.07 205.077C553.946 203.873 552.299 203.724 551.097 203.551C549.729 203.314 548.479 202.629 547.541 201.604C546.604 200.579 546.032 199.271 545.916 197.887C545.842 196.675 546.13 195.413 545.817 194.267C545.142 191.793 542.21 190.763 540.48 188.85C538.891 187.102 523.333 166.521 507.585 183.713C506.374 185.04 504.398 188.355 504.711 190.309C505.09 192.667 508.681 190.721 510.97 191.167Z" fill="#6478FF"/>
<path d="M520.343 199.412C520.343 199.412 520.343 193.64 525.285 192.634C530.226 191.628 531.874 200.055 526.792 206.256C521.71 212.456 520.343 199.412 520.343 199.412Z" fill="#FCB4D2"/>
<path opacity="0.2" d="M130.461 335.675C130.461 343.648 104.648 350.104 72.8075 350.104C40.9666 350.104 15.1545 343.648 15.1545 335.675C15.1545 327.702 40.9666 321.246 72.8075 321.246C104.648 321.246 130.461 327.71 130.461 335.675Z" fill="#66ACFF"/>
<path d="M107.399 225.063C105.332 248.076 109.796 291.521 105.283 316.2C105.283 316.2 99.6162 318.822 91.413 317.379C83.2098 315.936 79.9648 243.739 78.9105 231.89C77.8563 220.042 73.6476 195.099 72.3216 189.245C71.3168 184.817 72.8075 176.44 71.5639 172.614C71.435 172.154 71.1759 171.741 70.8177 171.426C70.4595 171.11 70.0177 170.905 69.5456 170.835C69.0735 170.765 68.5913 170.834 68.1573 171.033C67.7233 171.231 67.356 171.552 67.0999 171.955C65.1315 174.964 66.5481 182.674 66.2763 201.564C65.8315 228.774 61.4829 242.791 58.1719 256.437C54.861 270.083 47.4649 302.966 44.6317 310.551C44.6317 310.551 36.0085 315.894 27.6158 310.84C27.6158 310.84 31.1574 265.878 33.1505 248.901C35.1437 231.923 38.0181 215.977 37.9769 198.48C37.9769 192.84 37.5486 186.467 37.0297 180.035C36.0826 169.085 34.9213 157.987 34.9213 150.055C34.9023 148.404 34.9683 146.752 35.119 145.108C36.2391 133.762 99.8468 149.23 99.8468 149.23C99.9868 153.666 109.442 202.042 107.399 225.063Z" fill="#66ACFF"/>
<path opacity="0.34" d="M88.5714 173.027C76.5879 166.307 54.8856 154.837 43.1409 158.655C40.5999 159.445 37.9526 159.84 35.2918 159.826C34.8446 154.919 34.773 149.985 35.0777 145.067C36.1896 133.729 99.9208 149.964 99.9208 149.964C99.9867 151.432 102.688 167.898 103.734 174.626C100.868 176.069 96.8817 177.694 88.5714 173.027Z" fill="#0A3E89"/>
<path opacity="0.34" d="M93.0519 224.222C94.6992 212.514 102.4 210.205 107.589 209.768C107.848 214.866 107.776 219.975 107.375 225.063C106.805 233.02 106.634 241.001 106.864 248.975C101.436 245.652 91.2565 237.184 93.0519 224.222Z" fill="#0A3E89"/>
<path opacity="0.34" d="M46.6496 228.897C47.8603 215.268 60.1075 211.046 65.9716 209.628C65.365 222.978 63.3413 236.226 59.9345 249.148C56.1541 247.994 45.3154 243.805 46.6496 228.897Z" fill="#0A3E89"/>
<path d="M108.371 295.685C108.371 295.685 110.101 292.519 105.9 294.399C101.7 296.279 85.3923 296.872 84.6346 297.779C83.8769 298.686 82.3861 298.818 83.7204 300.707C85.0546 302.595 85.45 304.351 86.1912 308.663C86.9325 312.976 84.2969 319.069 85.2111 322.68C86.1253 326.292 82.0732 331.495 85.2111 333.399C88.3491 335.304 92.2777 335.782 94.9133 337.225C97.5489 338.668 108.602 340.705 116.607 340.524C124.613 340.342 128.451 338.306 123.905 334.183C119.358 330.06 117.48 327.718 113.156 326.094C108.832 324.47 107.968 319.943 107.976 315.796C107.984 311.648 107.342 312.547 107.976 308.309C108.61 304.071 108.371 295.685 108.371 295.685Z" fill="#001A49"/>
<path d="M27.41 289.65C27.41 289.65 25.9439 286.838 31.4539 288.825C36.9639 290.812 51.7889 289.757 51.0806 292.024C50.3723 294.292 50.6935 299.371 49.2275 301.251C47.7615 303.131 49.5158 304.549 48.4039 308.169C47.292 311.789 46.3366 317.618 48.025 320.636C49.7134 323.654 55.2069 333.276 56.1458 338.248C57.0848 343.22 50.6935 346.353 42.2597 339.625C33.8259 332.897 33.8753 330.86 30.9927 327.908C28.11 324.956 23.8025 323.786 23.959 318.104C24.1155 312.423 23.959 309.752 24.832 306.371C25.7051 302.991 27.4511 300.311 26.817 297.186C26.1828 294.061 27.41 289.65 27.41 289.65Z" fill="#001A49"/>
<path d="M110.62 114.806C108.985 115.784 107.078 116.206 105.184 116.01C104.716 115.982 104.251 115.922 103.792 115.828C101.495 115.295 99.265 114.504 97.1453 113.47C94.5427 112.34 91.7506 111.137 90.2352 108.745C89.4926 107.443 88.9852 106.019 88.7362 104.54C87.7588 100.088 87.12 95.5672 86.8254 91.0179C86.6936 88.9235 86.6607 86.7138 87.649 84.8503C89.774 80.7276 95.5475 80.571 98.6031 83.7702C101.321 86.6066 100.827 93.1452 101.288 96.7649C101.343 97.2541 101.431 97.739 101.552 98.2161C101.651 98.5885 101.815 98.9403 102.038 99.255C102.448 99.7772 102.954 100.216 103.528 100.55L109.014 104.227C110.751 105.39 112.621 106.701 113.222 108.729C113.856 110.988 112.605 113.528 110.62 114.806Z" fill="#FF8BB7"/>
<path d="M110.62 114.806C108.985 115.784 107.078 116.206 105.184 116.01C104.27 111.763 102.836 107.674 101.807 103.444C101.403 102.022 101.25 100.54 101.354 99.0654C101.389 98.787 101.444 98.5115 101.519 98.2409C101.618 98.6133 101.782 98.9651 102.005 99.2798C102.415 99.802 102.921 100.241 103.495 100.574L108.981 104.252C110.718 105.414 112.588 106.725 113.189 108.754C113.856 110.988 112.604 113.528 110.62 114.806Z" fill="#F268A0"/>
<path d="M93.0191 81.5769C93.5956 99.1313 101.321 152.487 101.321 152.487C79.4706 170.891 34.0978 160.254 34.0978 160.254L33.793 103.163L41.815 48.5788C47.8521 45.4044 77.7822 48.1831 77.7822 48.1831C77.7822 48.1831 90.3671 47.911 94.5922 53.1303C100.761 60.7903 101.634 87.9011 101.634 87.9011C101.634 87.9011 97.6066 91.9331 92.4343 90.2016" fill="#C9DFFF"/>
<path d="M96.264 73.3977L96.6017 81.4782C96.6414 82.4488 96.3733 83.407 95.8357 84.2157L95.4404 84.8011C95.0426 85.391 94.8462 86.0938 94.8803 86.8047C94.9296 88.0401 94.5514 89.2546 93.8096 90.2431L93.5131 90.6388" fill="#B6D7FF"/>
<path d="M28.9665 117.535C29.7901 119.605 30.8773 121.749 32.7716 122.952C33.6929 123.483 34.7156 123.813 35.7729 123.921C36.8301 124.029 37.8982 123.912 38.9075 123.579C40.9236 122.893 42.7709 121.786 44.3269 120.33C53.2137 112.58 56.6811 100.459 63.0971 90.5481C65.6503 86.5903 68.6812 82.9788 71.4568 79.1694C73.0052 77.0586 74.5124 74.7664 74.8336 72.1609C75.1548 69.5553 73.9029 66.5787 71.4156 65.7624C70.4355 65.4409 69.1095 65.2512 68.9447 64.237C68.9002 63.8592 68.9875 63.4776 69.1918 63.1569C69.8013 62.0932 70.9461 61.5078 71.8356 60.6256C72.7251 59.7433 73.384 58.3828 72.7087 57.3274C72.419 56.9701 72.0262 56.711 71.584 56.5856C71.1418 56.4601 70.6716 56.4745 70.2378 56.6265C69.3722 56.9564 68.5923 57.4778 67.9564 58.1519C63.9289 61.9036 60.2227 66.5045 59.5473 71.9712C59.3249 73.7687 59.432 75.6322 58.8225 77.339C58.2109 78.768 57.3553 80.0794 56.294 81.2143C51.3935 87.0768 46.5013 92.9805 40.6866 97.9442C41.4801 93.9031 41.7129 89.7716 41.3784 85.6668C41.1807 83.1932 40.7113 80.6371 39.0558 78.8314C36.6673 76.2341 32.3186 76.1269 29.3372 78.0068C23.4565 81.7255 23.3577 89.8225 23.6377 95.9983C24.0001 103.304 26.1745 110.832 28.9665 117.535Z" fill="#FF8BB7"/>
<path d="M53.0407 47.1115C53.0407 47.1115 26.8086 46.1633 24.8649 65.845C23.7118 77.4792 20.4997 95.4459 21.7846 98.5379C21.7846 98.5379 35.8766 96.3529 44.4669 93.6484C44.4669 93.6484 44.7387 83.1521 42.9514 79.0046" fill="#C9DFFF"/>
<path d="M36.8239 60.6007C39.8713 65.0038 43.0339 69.7531 43.0998 75.1126C43.0421 76.1838 43.0421 77.2572 43.0998 78.3283C43.2975 79.9774 44.0882 81.5358 44.5576 83.1601C45.3812 86.0543 45.2083 89.1298 45.0106 92.1394C45.039 92.4022 45.0142 92.6681 44.9377 92.9212C44.8613 93.1742 44.7348 93.4093 44.5657 93.6124C44.3967 93.8155 44.1885 93.9825 43.9536 94.1034C43.7188 94.2243 43.462 94.2967 43.1987 94.3161" fill="#B6D7FF"/>
<path d="M92.0225 15.8284C92.1213 16.653 92.0225 31.8739 88.4809 37.1592C84.9394 42.4445 81.9662 43.9287 75.6161 42.2302L75.0478 51.1846C75.0478 51.1846 71.2921 58.2674 62.3641 54.4828C60.723 53.8228 59.2485 52.8068 58.0465 51.508C56.8445 50.2091 55.9451 48.6597 55.4128 46.9713L66.3834 11.9201L92.0225 15.8284Z" fill="#FF8BB7"/>
<path d="M58.0237 35.1308C58.1554 36.1945 64.1184 35.3864 67.1411 32.9952C70.1637 30.6041 70.9379 31.0081 70.8309 29.359C70.7238 27.7099 69.2248 28.5345 68.2777 25.8135C67.3305 23.0925 67.6682 19.0028 71.218 19.58C74.7677 20.1572 74.5124 22.8782 76.1596 21.6826C77.8069 20.487 76.7115 16.4385 78.2516 15.9108C79.7918 15.3831 80.8213 12.6704 86.8502 16.1664C92.879 19.6624 97.8701 23.4718 98.9408 18.7884C100.012 14.1051 95.0781 13.9649 98.562 12.4477C102.046 10.9306 98.7843 6.67596 92.286 6.78315C85.7877 6.89034 78.6964 -3.47412 67.5776 2.28116C56.4588 8.03645 55.174 12.8682 58.0237 35.1308Z" fill="#001A49"/>
<path d="M75.6161 42.2299C72.9039 41.8896 70.3386 40.8052 68.2035 39.0967C65.082 36.6231 68.9201 42.9473 71.2509 44.1428C72.7003 44.8769 74.0531 45.7881 75.2784 46.8556L75.6161 42.2299Z" fill="#F268A0"/>
<path d="M76.4232 23.1008C76.4232 23.1008 74.2983 17.8155 69.3237 18.6401C64.349 19.4646 65.9057 27.9656 72.8899 31.8327C79.8742 35.6998 76.4232 23.1008 76.4232 23.1008Z" fill="#FF8BB7"/>
<path d="M56.6153 42.3455C55.3716 42.5846 53.1643 45.3798 52.7608 47.6885L52.2172 50.797C52.1425 51.2208 52.1709 51.6563 52.3 52.0668C52.429 52.4772 52.6548 52.8506 52.9584 53.1552L53.4938 53.6911C53.6492 53.8461 53.7873 54.0175 53.9056 54.2023L59.0614 58.2591L62.0347 57.2614C62.3985 57.1384 62.779 57.0717 63.163 57.0635L66.8446 56.9398C66.8891 56.9306 66.929 56.9063 66.9577 56.871C66.9864 56.8357 67.0021 56.7915 67.0021 56.746C67.0021 56.7005 66.9864 56.6564 66.9577 56.6211C66.929 56.5858 66.8891 56.5615 66.8446 56.5523C57.6119 54.0787 55.9811 47.6308 55.9811 47.6308C55.9811 47.6308 57.0024 42.2713 56.6153 42.3455Z" fill="#B6D7FF"/>
<path d="M69.3649 56.643C69.3317 56.6866 69.3146 56.7402 69.3162 56.795C69.3179 56.8497 69.3382 56.9022 69.3739 56.9437C69.4096 56.9852 69.4584 57.0132 69.5122 57.023C69.5661 57.0328 69.6216 57.0238 69.6696 56.9975C72.1636 55.767 74.3999 54.0711 76.2585 52.0008C76.9597 51.3455 77.4233 50.4753 77.5763 49.5272C77.5801 49.2078 77.53 48.89 77.4281 48.5872C77.0327 46.9382 76.9009 45.5117 75.5173 44.5635C75.3278 45.957 75.7396 49.9065 72.6181 52.3059C71.2262 53.4273 70.4438 55.2 69.3649 56.643Z" fill="#B6D7FF"/>
<path d="M144.24 94.9098L140.747 74.3953L101.7 90.4903L102.054 99.115L144.24 94.9098Z" fill="#606060"/>
<path d="M143.037 94.1019L139.331 74.0161L102.532 89.1217L103.463 98.4802L143.037 94.1019Z" fill="white"/>
<path d="M137.354 98.307L144.248 94.91C144.248 94.91 131.012 85.9802 130.115 86.4749C129.217 86.9696 91.24 103.955 91.24 103.955L106.889 112.44L137.354 98.307Z" fill="#6478FF"/>
<path d="M120.758 106.585C121.398 106.58 122.031 106.727 122.603 107.014C122.888 107.162 123.116 107.4 123.253 107.69C123.39 107.98 123.428 108.308 123.361 108.622C123.081 109.446 121.985 109.62 121.252 110.106C120.453 110.771 119.878 111.666 119.605 112.67C118.658 115.029 117.274 117.436 114.944 118.442C113.753 118.902 112.478 119.099 111.204 119.019C109.236 118.962 107.02 118.401 106.065 116.669C105.906 116.429 105.806 116.154 105.773 115.868C105.74 115.581 105.775 115.291 105.876 115.02C106.061 114.722 106.323 114.479 106.635 114.318C106.947 114.157 107.296 114.083 107.646 114.105C108.346 114.105 109.046 114.254 109.738 114.171C109.917 114.159 110.088 114.096 110.233 113.99C110.545 113.709 110.422 113.206 110.504 112.794C110.735 111.706 112.357 111.5 112.786 110.469C112.913 109.81 112.913 109.132 112.786 108.474C112.819 104.953 118.699 106.437 120.758 106.585Z" fill="#FF8BB7"/>
<path d="M248.451 242.915C248.451 242.915 249.81 237.745 246.277 234.48C242.744 231.214 188.361 222.029 188.361 222.029L176.995 242.09L248.451 242.915Z" fill="#66ACFF"/>
<path d="M247.068 242.923L255.666 339.196" stroke="#2E53BC" stroke-width="3.37" stroke-miterlimit="10"/>
<path d="M184.144 340.21L190.016 240.045L185.56 237.596L175.891 328.139" stroke="#2E53BC" stroke-width="3.37" stroke-miterlimit="10"/>
<path d="M249.679 269.094C249.679 269.094 253.797 281.165 248.41 282.583C243.024 284.001 192.956 286.285 185.569 281.445C178.181 276.605 182.134 264.353 182.134 264.353" stroke="#2E53BC" stroke-width="3.37" stroke-miterlimit="10"/>
<path d="M247.842 257.237L188.978 256.099L183.724 250.855" stroke="#2E53BC" stroke-width="3.37" stroke-miterlimit="10"/>
<path d="M210.845 130.002C210.845 130.002 211.825 133.77 211.331 135.898C210.837 138.025 202.593 138.957 202.593 138.957L222.302 166.117L236.031 141.142L232.259 132.83L229.484 132.459L228.182 123.455L210.845 130.002Z" fill="#FF8BB7"/>
<path d="M217.187 163.891C218.938 164.302 220.774 164.128 222.417 163.396C228.251 161.173 232.966 156.725 235.529 151.028C236.233 149.483 236.759 147.861 237.094 146.196C237.201 145.685 237.283 145.157 237.349 144.638C237.533 143.299 237.561 141.943 237.432 140.597C237.382 140.127 237.308 139.674 237.217 139.22C236.996 138.11 236.607 137.04 236.064 136.046C235.383 134.906 234.484 133.912 233.419 133.121C232.353 132.33 231.142 131.758 229.854 131.437C228.821 131.651 227.884 132.195 227.186 132.987C226.593 133.879 226.259 134.918 226.222 135.988C226 138.18 226.147 140.393 226.659 142.535C226.712 142.77 226.839 142.982 227.022 143.14C227.204 143.298 227.432 143.393 227.673 143.411C227.913 143.43 228.153 143.37 228.357 143.242C228.562 143.115 228.72 142.924 228.808 142.7C229.047 142.09 230.826 143.145 230.62 144.225C230.083 146.356 229.091 148.344 227.713 150.055C226.164 152.232 224.501 154.4 223.027 156.651C222.211 157.925 220.945 158.843 219.482 159.222C218.019 159.601 216.467 159.413 215.136 158.696C214.852 159.032 214.644 159.426 214.527 159.85C214.09 161.549 215.49 163.346 217.187 163.891Z" fill="#F2649E"/>
<path d="M209.527 128.7L225.176 127.941C226.049 129.195 226.424 130.729 226.228 132.245C226.031 133.76 225.277 135.148 224.114 136.137C219.921 140.103 209.527 128.7 209.527 128.7Z" fill="#F2649E"/>
<path d="M218.711 100.063C218.101 100.17 205.459 100.319 204.479 108.935C203.499 117.552 204.479 134.76 212.838 134.059C221.198 133.358 224.665 130.687 227.136 127.562C229.607 124.437 234.648 119.712 234.549 114.823C234.45 109.933 229.508 98.1833 218.711 100.063Z" fill="#FF8BB7"/>
<path d="M218.068 107.55C218.879 108.085 219.794 108.439 220.753 108.589C221.885 108.946 222.916 109.565 223.763 110.396C224.61 111.227 225.25 112.246 225.629 113.371C225.789 113.029 226.019 112.725 226.303 112.476C226.587 112.228 226.92 112.041 227.28 111.928C227.64 111.815 228.02 111.777 228.395 111.819C228.77 111.86 229.132 111.979 229.459 112.168C230.095 112.596 230.575 113.221 230.825 113.947C231.074 114.673 231.081 115.461 230.843 116.191C230.583 116.913 230.162 117.565 229.613 118.1C229.063 118.634 228.4 119.036 227.672 119.275C227.013 119.514 226.247 119.696 225.901 120.298C225.765 120.664 225.718 121.058 225.764 121.447C225.81 121.835 225.947 122.207 226.164 122.532L228.051 126.564C228.118 126.74 228.228 126.896 228.372 127.018C228.701 127.24 229.138 127.018 229.492 126.861C230.643 126.334 231.952 126.269 233.149 126.679C233.776 127.01 234.474 127.186 235.183 127.191C235.594 127.076 235.966 126.85 236.256 126.537C236.547 126.224 236.746 125.837 236.83 125.418C237.069 124.593 237.077 123.728 237.341 122.944C237.967 121.031 239.812 119.852 241.022 118.228C243.296 115.07 242.571 110.428 240.133 107.402C239.227 106.28 238.099 105.274 237.662 103.889C237.061 101.828 238.206 99.2718 236.838 97.6227C235.471 95.9736 232.358 96.6827 230.595 95.2563C229.541 94.4317 229.072 92.8486 227.803 92.3786C225.777 91.6365 224.031 94.2421 221.89 94.4647C219.749 94.6873 217.698 92.3374 215.573 92.9393C214.255 93.3186 213.415 94.7451 212.081 95.0749C210.911 95.3635 209.676 94.7286 208.49 94.9265C206.9 95.1821 205.92 96.7817 205.278 98.2246C203.573 102.166 202.66 106.405 202.593 110.7C202.593 111.351 202.774 112.201 203.416 112.242C203.56 112.239 203.702 112.208 203.833 112.15C203.965 112.092 204.083 112.008 204.182 111.904C205.129 111.021 205.319 109.628 205.607 108.366C205.895 107.105 206.48 105.711 207.715 105.34C208.234 105.184 208.803 105.241 209.363 105.101C211.117 104.648 212.163 102.339 214.14 103.106C216.116 103.873 216.619 106.264 218.068 107.55Z" fill="#6478FF"/>
<path d="M224.353 113.38C224.353 113.38 226.634 108.49 231.263 109.546C235.891 110.601 233.981 118.492 227.21 121.782C220.44 125.072 224.353 113.38 224.353 113.38Z" fill="#FF8BB7"/>
<path d="M170.892 218.863C169.245 219.003 167.424 219.259 166.263 220.454C165.492 221.365 165.008 222.484 164.871 223.67C164.503 225.373 164.594 227.143 165.135 228.799C165.416 229.621 165.89 230.365 166.518 230.966C167.146 231.567 167.909 232.009 168.742 232.253C169.68 232.427 170.64 232.443 171.584 232.303L181.895 231.371C184.07 231.173 186.524 230.827 187.801 229.054C190.156 225.756 187.133 220.768 183.954 219.16C180.413 217.436 174.631 218.541 170.892 218.863Z" fill="#FF8BB7"/>
<path d="M140.237 232.097C141.611 229.792 143.433 227.787 145.595 226.2C147.756 224.612 150.213 223.474 152.822 222.854C154.559 222.466 156.437 222.342 157.862 221.287C158.67 220.593 159.392 219.804 160.012 218.937C160.995 217.699 162.219 216.672 163.609 215.92C164.999 215.168 166.526 214.704 168.1 214.559C170.826 214.41 174.837 215.837 175.751 218.681C173.099 218.567 170.465 219.177 168.133 220.446C166.485 222.919 167.54 226.589 169.154 229.046C169.566 229.672 170.653 231.206 170.686 231.965C170.768 233.408 168.676 233.49 167.391 234.15L158.883 238.47C154.955 240.466 150.886 242.511 146.48 242.741C144.735 242.908 142.979 242.567 141.423 241.76C140.743 241.384 140.155 240.861 139.702 240.229C139.249 239.597 138.942 238.873 138.804 238.107C138.499 237.398 138.795 234.496 140.237 232.097Z" fill="#001A49"/>
<path d="M140.237 232.097C141.611 229.792 143.433 227.787 145.595 226.2C147.756 224.612 150.213 223.474 152.822 222.854C154.559 222.466 156.437 222.342 157.862 221.287C158.67 220.593 159.392 219.804 160.012 218.937C160.995 217.699 162.219 216.673 163.609 215.92C164.999 215.168 166.526 214.705 168.1 214.559C170.336 214.473 172.529 215.19 174.285 216.579C172.197 218.048 169.754 218.931 167.21 219.135C165.563 219.25 163.792 219.135 162.376 219.959C161.28 220.619 160.588 221.782 159.649 222.647C156.083 225.946 149.552 224.775 146.645 228.675C146.288 229.115 146.06 229.646 145.986 230.208C145.879 231.519 146.957 232.567 147.814 233.564C149.816 235.894 150.977 238.83 151.109 241.9C149.617 242.365 148.073 242.642 146.513 242.725C144.768 242.891 143.012 242.551 141.456 241.744C140.776 241.367 140.188 240.844 139.735 240.213C139.282 239.581 138.975 238.856 138.837 238.091C138.499 237.398 138.795 234.496 140.237 232.097Z" fill="white"/>
<path d="M158.818 232.806C158.784 232.945 158.792 233.092 158.842 233.227C158.893 233.361 158.982 233.478 159.099 233.561C159.216 233.644 159.356 233.69 159.499 233.693C159.643 233.696 159.784 233.655 159.904 233.577C160.025 233.499 160.119 233.386 160.174 233.254C160.23 233.121 160.244 232.975 160.216 232.834C160.188 232.693 160.118 232.564 160.015 232.463C159.913 232.363 159.782 232.295 159.641 232.27C159.461 232.237 159.276 232.275 159.123 232.374C158.97 232.474 158.861 232.628 158.818 232.806Z" fill="#C9DFFF"/>
<path d="M162.26 231.239C162.226 231.379 162.235 231.525 162.285 231.66C162.335 231.795 162.425 231.911 162.542 231.994C162.659 232.077 162.798 232.123 162.942 232.126C163.085 232.129 163.226 232.089 163.347 232.011C163.467 231.932 163.561 231.82 163.617 231.687C163.673 231.555 163.687 231.408 163.659 231.268C163.63 231.127 163.56 230.997 163.458 230.897C163.355 230.796 163.225 230.729 163.084 230.703C162.904 230.671 162.719 230.708 162.566 230.808C162.413 230.907 162.303 231.062 162.26 231.239Z" fill="#C9DFFF"/>
<path d="M165.925 228.79C165.787 228.758 165.643 228.768 165.511 228.818C165.379 228.868 165.264 228.956 165.181 229.071C165.099 229.186 165.052 229.323 165.048 229.465C165.043 229.606 165.08 229.746 165.155 229.867C165.229 229.987 165.337 230.083 165.466 230.142C165.595 230.201 165.738 230.22 165.878 230.197C166.017 230.175 166.147 230.111 166.251 230.015C166.355 229.919 166.428 229.794 166.461 229.656C166.483 229.564 166.486 229.468 166.471 229.375C166.456 229.282 166.423 229.192 166.373 229.112C166.323 229.031 166.258 228.961 166.181 228.906C166.104 228.851 166.017 228.812 165.925 228.79Z" fill="#C9DFFF"/>
<path d="M157.335 228.897C157.303 229.035 157.313 229.18 157.363 229.312C157.413 229.445 157.501 229.56 157.616 229.642C157.731 229.725 157.868 229.771 158.009 229.776C158.15 229.781 158.29 229.744 158.41 229.669C158.531 229.594 158.626 229.486 158.685 229.357C158.744 229.228 158.763 229.085 158.741 228.945C158.718 228.805 158.655 228.675 158.559 228.571C158.462 228.467 158.337 228.394 158.2 228.361C158.108 228.339 158.013 228.336 157.919 228.351C157.826 228.366 157.736 228.399 157.656 228.449C157.576 228.499 157.506 228.564 157.451 228.641C157.396 228.718 157.356 228.805 157.335 228.897Z" fill="#C9DFFF"/>
<path d="M160.778 227.29C160.746 227.428 160.755 227.572 160.805 227.704C160.855 227.837 160.943 227.952 161.058 228.034C161.173 228.117 161.31 228.163 161.452 228.168C161.593 228.173 161.733 228.136 161.853 228.061C161.973 227.987 162.069 227.878 162.128 227.749C162.186 227.62 162.206 227.477 162.183 227.337C162.161 227.197 162.097 227.067 162.001 226.963C161.905 226.86 161.78 226.787 161.643 226.754C161.551 226.732 161.455 226.728 161.362 226.743C161.269 226.758 161.179 226.792 161.099 226.841C161.018 226.891 160.949 226.956 160.893 227.033C160.838 227.11 160.799 227.197 160.778 227.29Z" fill="#C9DFFF"/>
<path d="M164.443 224.841C164.305 224.809 164.161 224.818 164.028 224.868C163.896 224.918 163.781 225.007 163.699 225.122C163.616 225.237 163.57 225.374 163.565 225.515C163.56 225.657 163.598 225.797 163.672 225.917C163.747 226.038 163.855 226.133 163.984 226.192C164.112 226.251 164.256 226.27 164.395 226.248C164.535 226.225 164.665 226.162 164.769 226.065C164.872 225.969 164.945 225.844 164.978 225.706C165 225.614 165.004 225.519 164.989 225.425C164.974 225.332 164.94 225.242 164.891 225.162C164.841 225.081 164.776 225.012 164.699 224.957C164.622 224.901 164.535 224.862 164.443 224.841Z" fill="#C9DFFF"/>
<path d="M223.339 298.86C223.443 299.976 223.302 301.101 222.928 302.158C222.219 303.848 220.531 304.895 218.875 305.662C217.22 306.429 215.425 307.055 214.099 308.317C212.929 309.43 212.229 310.939 211.208 312.184C210.175 313.383 208.954 314.405 207.592 315.21C202.189 318.607 189.201 319.333 187.751 316.035C185.684 311.285 190.074 309.702 193.368 306.478C196.663 303.254 200.665 300.822 203.993 297.639C204.633 297.094 205.152 296.419 205.516 295.66C206.225 293.912 205.343 291.95 204.454 290.284C204.186 289.85 204.004 289.369 203.919 288.866C203.923 288.365 204.049 287.873 204.286 287.432C204.522 286.991 204.863 286.615 205.278 286.335C208.136 284.034 212.435 284.265 215.655 286.013C218.875 287.761 221.231 290.771 223.282 293.813" fill="#001A49"/>
<path d="M191.902 307.765C194.583 309.523 196.789 311.916 198.326 314.732C203.186 312.803 208.292 310.684 211.438 306.487C212.674 304.838 213.547 302.974 214.675 301.267C215.713 299.484 217.312 298.095 219.221 297.318C220.532 296.918 221.929 296.901 223.249 297.268C223.249 297.788 223.323 298.315 223.34 298.835C223.443 299.951 223.302 301.077 222.928 302.133C222.219 303.823 220.531 304.87 218.876 305.637C217.22 306.404 215.425 307.031 214.099 308.292C212.929 309.405 212.229 310.914 211.208 312.159C210.175 313.359 208.954 314.381 207.592 315.185C202.189 318.583 189.201 319.308 187.751 316.01C185.98 311.945 188.937 310.205 191.902 307.765Z" fill="white"/>
<path d="M199.974 305.126C199.972 305.27 200.013 305.411 200.092 305.532C200.17 305.652 200.283 305.746 200.415 305.802C200.548 305.859 200.693 305.874 200.835 305.847C200.976 305.82 201.106 305.752 201.208 305.65C201.31 305.549 201.38 305.42 201.409 305.279C201.437 305.138 201.423 304.992 201.369 304.859C201.314 304.726 201.221 304.612 201.102 304.532C200.982 304.452 200.842 304.409 200.698 304.409C200.604 304.408 200.509 304.425 200.422 304.461C200.334 304.497 200.254 304.549 200.186 304.616C200.119 304.683 200.065 304.762 200.029 304.85C199.992 304.937 199.974 305.031 199.974 305.126Z" fill="#C9DFFF"/>
<path d="M203.359 303.106C203.359 303.248 203.401 303.386 203.479 303.504C203.558 303.622 203.67 303.714 203.801 303.769C203.932 303.823 204.076 303.837 204.215 303.809C204.354 303.782 204.482 303.713 204.582 303.613C204.682 303.513 204.75 303.385 204.778 303.246C204.806 303.107 204.791 302.962 204.737 302.831C204.683 302.7 204.591 302.588 204.473 302.509C204.355 302.431 204.217 302.389 204.075 302.389C203.885 302.389 203.703 302.464 203.568 302.599C203.434 302.733 203.359 302.916 203.359 303.106Z" fill="#C9DFFF"/>
<path d="M205.978 299.585C205.836 299.585 205.698 299.627 205.58 299.706C205.462 299.785 205.37 299.897 205.316 300.028C205.262 300.159 205.247 300.303 205.275 300.442C205.303 300.582 205.371 300.709 205.471 300.81C205.571 300.91 205.699 300.978 205.838 301.006C205.977 301.034 206.121 301.02 206.252 300.965C206.383 300.911 206.495 300.819 206.574 300.701C206.652 300.583 206.694 300.444 206.694 300.303C206.694 300.112 206.619 299.93 206.484 299.795C206.35 299.661 206.168 299.585 205.978 299.585Z" fill="#C9DFFF"/>
<path d="M172.02 234.232C170.167 236.708 169.105 239.686 168.974 242.776C168.844 245.867 169.65 248.925 171.287 251.548C172.679 253.782 173.988 255.794 174.647 256.602C184.819 269.209 197.997 280.341 202.469 295.883C202.587 296.515 202.872 297.104 203.293 297.59C203.748 297.96 204.294 298.202 204.874 298.291C208.3 299.006 211.853 298.808 215.177 297.715C218.502 296.622 221.482 294.674 223.817 292.066C220.35 278.708 211.694 267.758 201.58 258.383C199.488 256.454 197.321 254.541 195.814 252.117C194.307 249.693 193.623 246.6 194.702 243.97C195.608 241.744 197.527 240.285 199.71 239.13C200.97 238.454 202.321 237.885 203.606 237.324C209.274 234.861 214.621 231.713 219.526 227.949C221.173 226.696 222.862 225.171 223.101 223.118C223.356 220.9 221.7 218.814 219.666 217.89C217.632 216.967 215.326 216.95 213.077 217.066C207.344 217.311 201.651 218.14 196.086 219.539L199.125 218.541C197.379 219.053 195.617 219.564 193.862 220.116C190.788 220.979 187.763 222.011 184.803 223.208L188.303 222.07C184.371 223.53 180.698 225.609 177.423 228.23C176.586 228.929 175.796 229.684 175.059 230.489C174.046 231.627 173 232.93 172.02 234.232Z" fill="#C9DFFF"/>
<path d="M190.016 240.045C193.821 241.15 195.897 240.045 199.751 239.13C201.011 238.454 202.362 237.885 203.647 237.324C209.316 234.861 214.662 231.713 219.567 227.949C221.215 226.696 222.903 225.171 223.142 223.118C223.397 220.9 221.742 218.814 219.707 217.89C217.673 216.967 215.367 216.95 213.118 217.066C207.386 217.311 201.693 218.14 196.127 219.539L199.166 218.541C197.42 219.053 195.658 219.564 193.904 220.116C190.829 220.979 187.804 222.011 184.844 223.208L188.344 222.07C184.413 223.53 180.74 225.609 177.464 228.23C176.649 228.898 181.03 237.423 190.016 240.045Z" fill="#B6D7FF"/>
<path d="M167.441 196.287C166.436 197.936 165.398 199.915 165.999 201.778C166.251 202.455 166.669 203.057 167.215 203.53C167.76 204.003 168.416 204.33 169.121 204.483C170.537 204.776 172.007 204.665 173.363 204.161C176.686 202.953 179.53 200.7 181.467 197.738C183.384 194.792 184.816 191.557 185.708 188.157C186.285 186.186 186.746 184.034 185.824 182.163C183.806 178.155 177.588 179.005 175.413 182.286C172.465 186.64 170.142 191.735 167.441 196.287Z" fill="#FF8BB7"/>
<path d="M173.041 186.137C174.689 187.943 181.871 189.979 184.885 190.738C185.324 190.859 185.769 190.955 186.219 191.026C186.792 190.409 187.277 189.715 187.661 188.965C190.065 184.653 192.602 176.597 192.347 179.45C192.026 182.748 191.194 205.992 195.353 207.756C195.493 207.818 195.645 207.852 195.798 207.855L235.883 210.708L245.198 200.814L246.079 199.865C245.915 195.792 245.816 190.853 246.483 187.563C246.557 187.209 246.615 186.829 246.672 186.434C246.672 186.244 246.722 186.038 246.73 185.84C246.738 185.642 246.779 185.428 246.788 185.222C246.796 185.015 246.788 184.76 246.829 184.512C246.87 184.265 246.829 183.944 246.829 183.688C246.829 182.517 246.829 181.305 246.788 180.101C246.788 179.771 246.747 179.433 246.73 179.095C246.664 178.081 246.59 177.092 246.491 176.176C246.491 176.028 246.491 175.896 246.45 175.756C246.409 175.616 246.45 175.484 246.409 175.352C246.409 175.212 246.409 175.072 246.359 174.94C246.31 174.808 246.359 174.668 246.359 174.536C246.318 174.14 246.269 173.761 246.219 173.414C246.219 173.315 246.219 173.225 246.219 173.126C246.219 172.837 246.154 172.573 246.112 172.301C246.071 172.029 246.112 172.037 246.063 171.922C245.981 171.361 245.931 171.015 245.915 170.941L249.127 179.532C249.127 179.532 250.774 178.848 252.924 178.098C256.893 176.704 262.716 175.047 263.902 176.721C264.31 175.167 264.635 173.593 264.874 172.004C265.819 166.063 265.626 159.997 264.306 154.128C264.26 153.81 264.188 153.495 264.092 153.188C264.075 153.113 264.053 153.038 264.026 152.966C263.795 152.092 263.565 151.209 263.285 150.344L260.221 146.963C260.221 147.202 260.27 147.441 260.287 147.672C256.366 144.333 250.403 142.453 245.701 140.721C244.064 140.161 242.468 139.489 240.924 138.709C240.619 138.536 240.306 138.38 240.001 138.231C237.74 137.074 235.388 136.106 232.967 135.337C233.066 136.895 233.371 138.454 233.503 139.987C233.625 141.066 233.595 142.157 233.412 143.228C232.87 145.361 231.876 147.352 230.497 149.066C228.956 151.242 227.293 153.403 225.819 155.662C225.002 156.934 223.735 157.851 222.272 158.228C220.809 158.606 219.258 158.417 217.928 157.698C216.956 157.185 216.15 156.404 215.606 155.447C214.372 153.349 213.258 151.183 212.27 148.958C210.771 145.626 209.73 142.107 209.173 138.495C209.126 138.153 209.003 137.825 208.812 137.537C208.621 137.249 208.368 137.008 208.071 136.831C207.775 136.654 207.442 136.547 207.098 136.517C206.754 136.486 206.408 136.534 206.085 136.656C199.002 139.344 189.563 143.129 187.002 145.157C182.76 148.505 174.219 182.616 172.778 185.032C172.58 185.403 172.687 185.758 173.041 186.137Z" fill="#FFB000"/>
<path d="M192.355 179.425C192.034 182.723 191.202 205.967 195.361 207.731C196.4 205.253 197.227 202.69 197.832 200.072C198.892 196.239 199.578 192.312 199.883 188.347C200.204 182.418 199.133 176.506 198.046 170.668C197.799 169.291 197.429 167.75 196.226 167.057C195.524 166.692 194.714 166.593 193.945 166.777C190.724 167.403 188.888 170.833 188.056 174.024C186.722 179.104 187.372 183.869 187.669 188.94C190.074 184.653 192.643 176.605 192.355 179.425Z" fill="#F18912"/>
<path d="M237.967 149.066C240.767 156.618 241.401 164.732 241.896 172.812C242.357 180.291 242.431 187.811 242.95 195.281C243.156 198.134 244.078 200.022 245.215 200.797L246.096 199.849C245.931 195.776 245.832 190.837 246.5 187.547C247.644 181.915 245.964 171.402 245.89 170.916L249.102 179.508C249.102 179.508 250.749 178.823 252.899 178.073C252.99 177.496 253.08 176.91 253.179 176.333C253.558 173.958 253.937 171.51 253.426 169.16C252.685 165.713 250.132 162.992 248.484 159.892C246.17 155.612 245.511 150.657 243.864 146.073C242.217 141.488 239.029 136.92 234.269 135.947C234.071 140.523 236.377 144.794 237.967 149.066Z" fill="#F18912"/>
<path d="M229.451 141.579C229.505 141.814 229.633 142.025 229.816 142.182C229.999 142.338 230.228 142.432 230.468 142.45C230.708 142.467 230.948 142.407 231.151 142.279C231.355 142.15 231.512 141.96 231.6 141.735C231.773 141.133 232.141 140.605 232.646 140.235C232.9 140.1 233.182 140.026 233.47 140.02C233.675 140 233.882 140 234.088 140.02C234.296 140.046 234.503 140.087 234.705 140.144C235.703 140.383 236.624 140.871 237.382 141.562C238.464 142.576 239.308 143.818 239.853 145.199C240.374 146.533 240.768 147.913 241.031 149.321C242.678 157.171 242.834 165.367 245.519 172.928C245.799 173.752 246.104 174.486 246.425 175.253C248.072 178.894 249.957 182.423 252.067 185.815C253.368 188.009 255.016 190.433 257.536 190.763C258.967 190.851 260.382 190.421 261.522 189.55C265.039 187.077 266.629 182.492 266.34 178.205C266.168 176.077 265.662 173.991 264.841 172.021C264.004 170.022 262.981 168.106 261.786 166.298C259.463 162.687 256.704 159.372 254.439 155.72C251.664 151.226 249.292 146.452 246.359 142.057C246.086 141.641 245.855 141.199 245.668 140.738C244.72 138.586 244.136 135.791 242.538 134.397C240.719 132.815 238.665 131.524 236.451 130.571C235.215 130.137 233.874 130.096 232.613 130.456C231.578 130.677 230.641 131.223 229.937 132.014C229.351 132.906 229.018 133.941 228.973 135.007C228.766 137.209 228.928 139.43 229.451 141.579Z" fill="#FF8BB7"/>
<path d="M273.769 200.97C273.819 205.299 271.702 209.397 268.968 212.761C266.233 216.125 262.898 218.929 259.908 222.062C256.498 225.641 253.517 229.689 249.547 232.633C245.611 235.446 240.947 237.062 236.116 237.288C231.284 237.513 226.491 236.337 222.31 233.903C220.212 232.751 218.476 231.038 217.294 228.955C214.667 223.802 217.887 217.305 222.615 213.965C227.342 210.626 233.198 209.471 238.659 207.583C246.574 204.838 253.78 200.467 260.699 195.809C263.631 193.838 266.324 190.284 269.684 192.511C272.328 194.267 273.769 197.936 273.769 200.97Z" fill="#A5CFF9"/>
<path d="M267.18 190.589C261.901 189.402 256.581 191.933 251.688 194.242C228.396 205.258 202.881 211.558 177.448 215.68C180.174 223.645 179.416 228.601 185.601 234.315C196.473 235.362 211.702 235.016 220.374 230.786C225.975 228.048 231.164 224.47 236.954 222.128C242.241 219.993 247.908 218.937 253.336 217.181C258.763 215.425 264.133 212.704 267.559 208.111C270.986 203.518 270.574 195.157 267.18 190.589Z" fill="#C9DFFF"/>
<path d="M149.98 194.036L184.226 204.293L165.917 209.776L157.022 204.705L149.98 194.036Z" fill="#F2F2F2"/>
<path d="M148.531 190.408L180.52 200.764L162.771 207.171L148.531 190.408Z" fill="#F2F2F2"/>
<path d="M190.683 199.742L191.054 203.04C191.054 203.04 178.065 203.534 172.934 205.373C169.871 206.458 166.982 207.986 164.36 209.908L160.564 208.317L158.463 206.115C158.463 206.115 157.64 199.865 153.439 199.519C149.239 199.173 146.109 190.144 146.109 190.144H149.049C150.059 191.892 151.294 193.5 152.723 194.926C154.559 196.518 158.109 197.499 159.822 200.698C160.665 202.334 161.649 203.892 162.763 205.357L164.846 206.181C167.606 203.659 171.041 201.997 174.73 201.399C181.129 200.352 190.683 199.742 190.683 199.742Z" fill="white"/>
<path d="M144.627 189.559L142.79 189.806L160.185 209.545L162.268 209.306L144.627 189.559Z" fill="#FF5D00"/>
<path d="M191.466 200.204L164.344 209.917L178.312 215.804L218.241 207.707L191.466 200.204Z" fill="#FF5D00"/>
<path d="M158.883 208.086C158.233 207.369 158.949 205.893 159.814 205.827C160.679 205.761 161.461 206.528 162.079 207.245L165.374 210.906C165.657 211.278 166.028 211.576 166.452 211.772C166.882 211.871 167.33 211.845 167.746 211.698C171.138 210.851 174.583 210.231 178.057 209.842C179.935 209.636 181.928 209.529 183.584 210.667C183.237 212.231 182.302 213.601 180.973 214.493C179.771 215.245 178.438 215.763 177.044 216.018C173.58 216.826 170.041 217.268 166.485 217.337C165.48 217.434 164.467 217.257 163.553 216.826C162.52 216.111 161.698 215.132 161.173 213.99L158.883 208.086Z" fill="#FF8BB7"/>
<path opacity="0.2" d="M277.064 332.493C277.064 338.66 249.596 343.657 215.705 343.657C181.813 343.657 154.345 338.66 154.345 332.493C154.345 326.325 181.813 321.32 215.705 321.32C249.596 321.32 277.064 326.325 277.064 332.493Z" fill="#66ACFF"/>
<path opacity="0.2" d="M454.141 198.389C454.141 207.509 419.845 214.88 377.545 214.88C335.244 214.88 300.949 207.459 300.949 198.389C300.949 189.32 335.244 181.899 377.545 181.899C419.845 181.899 454.141 189.254 454.141 198.389Z" fill="#66ACFF"/>
<path d="M392.172 66.4632C389.775 59.5124 387.758 51.7122 388.095 44.9593C388.268 42.1806 388.301 39.7317 388.441 38.2063C389.182 30.1588 383.327 27.0008 381.218 26.8029C379.11 26.605 377.232 25.1538 370.223 25.3517C363.51 25.5826 358.906 30.3732 357.63 37.0025C356.608 42.3537 357.251 45.5447 358.247 50.1951C358.305 51.5638 358.355 56.9893 356.131 60.7904C353.569 65.177 350.077 65.952 349.929 76.4072C349.781 86.8623 392.172 79.9939 392.172 79.9939C393.58 75.5938 393.58 70.8634 392.172 66.4632Z" fill="#FF5D00"/>
<path d="M351.543 195.792C351.119 196.373 350.837 197.045 350.72 197.755C350.228 199.906 350.273 202.147 350.851 204.277C350.896 204.538 351.023 204.778 351.214 204.961C351.433 205.108 351.692 205.183 351.955 205.175C354.681 205.373 357.421 205.094 360.051 204.351C360.287 204.313 360.506 204.204 360.677 204.038C360.832 203.807 360.907 203.532 360.891 203.254C360.974 201.506 361.064 199.758 361.147 198.01C361.192 197.558 361.167 197.102 361.072 196.658C360.249 193.615 353.215 193.772 351.543 195.792Z" fill="#FCB4D2"/>
<path d="M347.318 206.701C345.276 208.177 342.022 209.686 339.626 208.886C339.111 208.753 338.669 208.421 338.398 207.962C338.251 207.608 338.183 207.225 338.201 206.841C338.157 203.415 338.666 200.004 339.708 196.74C340.326 194.819 341.396 192.717 343.365 192.255C345.557 191.846 347.823 192.217 349.772 193.302C352.795 195.165 360.364 193.887 360.726 194.077C361.55 194.522 361.822 199.181 361.468 200.08C360.496 202.553 357.481 203.518 355.093 203.815C352.286 204.044 349.596 205.043 347.318 206.701Z" fill="#D38C0D"/>
<path d="M344.6 192.09C344.179 192.107 343.76 192.159 343.348 192.247C341.38 192.708 340.309 194.811 339.692 196.732C338.649 199.999 338.14 203.412 338.184 206.841C338.167 207.225 338.234 207.608 338.382 207.962C338.653 208.421 339.094 208.753 339.609 208.886C341.083 209.381 342.904 208.993 344.551 208.284C345.314 206.271 345.829 204.172 346.083 202.034C346.482 198.646 345.97 195.213 344.6 192.09Z" fill="#FFB000"/>
<path d="M362.431 72.0453C371.598 71.8145 380.823 71.5836 389.891 72.9606C392.946 73.4305 396.068 74.1149 398.596 75.8959C403.332 79.1941 404.856 85.4771 405.704 91.2076C406.305 95.2149 406.742 99.2469 407.178 103.279C407.504 105.264 407.504 107.288 407.178 109.273C406.61 111.813 404.996 113.981 403.34 115.993C398.193 122.26 392.082 127.957 384.702 131.321C377.322 134.686 368.502 135.502 361.105 132.146C358.553 130.912 356.123 129.438 353.849 127.743C351.008 125.756 348.084 123.678 346.198 120.8C344.902 118.711 343.938 116.433 343.34 114.047C341.001 105.942 340.186 97.235 341.825 88.9154C342.829 83.7785 342.105 78.5674 347.121 75.9454C351.911 73.6296 357.118 72.3032 362.431 72.0453Z" fill="#C9DFFF"/>
<path d="M367.324 63.3465L365.94 76.3577C365.94 76.3577 373.517 80.0516 380.51 76.3577L379.126 60.5925L367.324 63.3465Z" fill="#FCB4D2"/>
<path d="M367.324 63.3465L366.994 67.1229C368.485 67.8403 370.47 68.4174 372.051 67.3126C374.143 65.8449 376.383 64.5256 379.464 65.4326L379.11 60.5761L367.324 63.3465Z" fill="#EA5E89"/>
<path d="M373.015 64.9874C369.964 64.9765 367.042 63.7555 364.888 61.5918C362.735 59.4281 361.525 56.4982 361.525 53.4438V41.6694C361.541 38.625 362.757 35.7099 364.908 33.5587C367.06 31.4075 369.974 30.1944 373.015 30.1836C376.073 30.1836 379.006 31.3998 381.168 33.5646C383.331 35.7294 384.545 38.6656 384.545 41.7271V53.4768C384.537 56.5326 383.318 59.4603 381.157 61.618C378.995 63.7757 376.067 64.9874 373.015 64.9874Z" fill="#FCB4D2"/>
<path d="M363.642 47.5731C363.642 47.5731 360.01 43.7885 356.081 46.2127C352.153 48.6368 356.386 55.2826 363.642 56.2061C370.898 57.1295 363.642 47.5731 363.642 47.5731Z" fill="#FCB4D2"/>
<path d="M382.808 47.5731C382.808 47.5731 386.432 43.7885 390.368 46.2127C394.305 48.6368 390.064 55.2826 382.808 56.2061C375.552 57.1295 382.808 47.5731 382.808 47.5731Z" fill="#FCB4D2"/>
<path d="M360.727 40.078C360.809 40.078 368.707 40.6222 373.624 36.6891C373.917 36.4629 374.254 36.3012 374.614 36.2148C374.973 36.1284 375.347 36.1192 375.71 36.1877C376.073 36.2562 376.418 36.401 376.722 36.6125C377.025 36.824 377.28 37.0974 377.471 37.4147C379.258 40.3088 382.215 44.11 385.18 43.4421C389.874 42.3867 382.495 25.5826 369.449 29.2353C356.403 32.888 360.727 40.078 360.727 40.078Z" fill="#FF5D00"/>
<path d="M410.44 84.0176C407.607 79.4084 401.298 76.4648 395.129 74.6096C395.354 74.8186 395.531 75.0747 395.646 75.3597C395.761 75.6447 395.813 75.9516 395.796 76.2587L393.885 106.041C397.509 112.209 401.042 119.003 400.532 121.773C400.021 124.544 395.73 131.239 391.917 136.78C388.754 141.397 385.929 145.19 385.929 145.19C388.941 147.52 391.299 150.591 392.773 154.103C392.773 154.103 396.068 152.331 400.491 149.494C405.515 146.279 412.021 141.702 416.773 136.805C425.767 127.611 416.881 94.4975 410.44 84.0176Z" fill="#C9DFFF"/>
<path d="M358.075 145.817L352.309 140.293L350.744 138.792L347.689 135.832C344.888 133.103 342.344 130.621 340.556 128.832C340.556 128.832 339.494 126.844 341.495 123.233C343.291 120.034 345.441 117.047 347.903 114.328C348.727 95.1161 346.256 80.8599 346.882 76.0363C339.799 79.4746 338.176 82.0389 336.677 83.9849C334.964 86.2111 316.169 123.233 322.536 134.117C326.184 140.35 330.533 146.485 337.805 151.952C343.241 156.008 350.316 155.885 359.969 158.812C359.969 158.812 361.904 151.193 366.92 150.566C366.994 150.566 363.049 150.566 358.075 145.817Z" fill="#C9DFFF"/>
<path d="M322.766 117.98C321.119 124.692 320.6 130.72 322.61 134.15C324.534 137.528 326.738 140.738 329.199 143.747C337.237 133.886 326.802 121.963 322.766 117.98Z" fill="#B6D7FF"/>
<path d="M420.126 115.935C415.62 118.805 407.961 126.094 412.029 141.183C413.687 139.823 415.27 138.375 416.773 136.846C420.57 132.937 421.196 124.799 420.126 115.935Z" fill="#B6D7FF"/>
<path d="M402.747 116.604C402.616 112.679 399.025 111.261 398.094 106.049C397.655 103.5 396.309 101.195 394.305 99.5603L393.885 106.049C397.509 112.217 401.042 119.011 400.532 121.782C400.532 121.782 402.879 120.528 402.747 116.604Z" fill="#B6D7FF"/>
<path d="M341.569 123.266C343.365 120.067 345.515 117.079 347.977 114.361C348.183 109.727 348.191 105.382 348.101 101.391C345.699 104.391 343.982 107.881 343.068 111.615C340.803 120.396 337.352 120.792 337.879 123.456C338.299 125.566 338.316 126.679 340.424 128.172C340.26 127.306 340.251 125.641 341.569 123.266Z" fill="#B6D7FF"/>
<path d="M363.807 74.3459C363.716 74.5735 363.693 74.8228 363.741 75.0633C363.847 75.3003 364.03 75.4948 364.26 75.6157C368.534 78.4274 374.02 78.3202 379.126 78.0893C379.516 78.1286 379.91 78.0744 380.276 77.931C380.641 77.7876 380.967 77.5592 381.226 77.2648C381.415 76.8898 381.503 76.4721 381.482 76.0527L381.753 68.8462C381.822 68.3414 381.739 67.8274 381.515 67.3703C381.226 67.0362 380.83 66.8143 380.395 66.7435C379.96 66.6726 379.513 66.7573 379.134 66.9828C378.393 67.4562 377.694 67.9913 377.042 68.5824C376.507 69.0214 375.855 69.293 375.166 69.3634C374.478 69.4338 373.784 69.2998 373.171 68.9782C372.471 68.5247 372.035 67.7413 371.335 67.2796C370.215 66.5458 369.037 66.9168 367.81 66.8261C366.986 66.7519 365.825 65.9603 365.215 66.2984C363.98 67.0487 364.219 72.9524 363.807 74.3459Z" fill="#B6D7FF"/>
<path d="M410.003 113.338L401.858 105.794C401.858 105.794 382.725 105.588 371.73 114.353C366.717 109.717 360.146 107.138 353.322 107.13H341.857L334.816 112.027L335.186 118.516L407.45 124.346L410.003 113.338Z" fill="white"/>
<path d="M334.816 112.027L335.186 118.516H364.886L363.626 116.686C363.626 116.686 366.064 112.852 334.816 112.027Z" fill="#E6E6E6"/>
<path d="M369.144 154.318L368.452 154.293L333.869 153.024L333.136 143.096L332.287 131.462L330.978 113.751L334.915 113.883L361.196 114.757H361.204L366.813 114.946L367.176 121.089L369.144 154.318Z" fill="#6478FF"/>
<path d="M413.018 151.828L378.212 156.717L377.108 121.889L376.985 118.203L410.003 113.347L411.593 113.108L412.013 124.346L412.425 135.741L413.018 151.828Z" fill="#6478FF"/>
<path d="M366.838 114.946C368.236 116.134 369.855 117.034 371.603 117.593C373.35 118.152 375.19 118.359 377.018 118.203L378.237 156.717C371.079 157.451 368.477 154.318 368.477 154.318L366.838 114.946Z" fill="#415BD8"/>
<path d="M413.578 139.336C413.602 139.837 413.505 140.337 413.294 140.792C413.083 141.248 412.765 141.645 412.367 141.95C411.93 142.29 411.54 142.687 411.206 143.129C408.784 146.287 401.776 139.872 399.165 137.769C396.554 135.667 400.293 131.882 403.555 130.093C403.935 129.887 404.329 129.705 404.732 129.549C406.029 129.055 407.452 128.998 408.784 129.384C409.55 129.565 410.333 129.813 411.206 129.986H411.387C411.914 130.073 412.394 130.34 412.747 130.741C413.1 131.142 413.303 131.653 413.323 132.187L413.578 139.336Z" fill="#FCB4D2"/>
<path d="M347.293 145.867C344.691 147.977 337.674 154.392 335.244 151.234C334.799 150.63 334.239 150.12 333.597 149.734C333.181 149.478 332.833 149.127 332.581 148.71C332.329 148.293 332.18 147.821 332.147 147.334C331.991 145.496 331.76 142.651 331.612 140.383C331.593 140.077 331.641 139.771 331.754 139.485C331.866 139.2 332.039 138.942 332.261 138.731C332.483 138.519 332.749 138.359 333.039 138.262C333.33 138.164 333.638 138.131 333.943 138.165C334.378 138.208 334.817 138.183 335.244 138.091C337.863 137.563 339.65 136.401 342.904 138.19C346.157 139.979 349.888 143.747 347.293 145.867Z" fill="#FCB4D2"/>
<path d="M440.189 164.047C439.568 162.204 438.557 160.516 437.224 159.1C434.061 156.025 429.103 155.967 424.705 156.338C418.898 156.867 413.124 157.715 407.409 158.878C405.301 159.414 403.125 159.634 400.952 159.529C399.585 159.389 399.305 153.584 399.305 153.584L343.941 156.272C343.941 156.272 344.386 158.193 343.941 158.556C340.449 161.434 335.063 156.907 330.607 156.14C327.522 155.492 324.36 155.29 321.218 155.538C318.096 155.926 314.967 157.286 313.097 159.818C311.227 162.349 310.667 166.81 311.236 169.902C312.718 177.916 322.321 185.568 329.94 188.437C385.435 209.265 404.419 176.622 417.638 175.781C424.17 175.36 430.931 175.096 436.787 172.186C438.599 171.279 440.444 169.926 440.839 167.939C440.994 166.607 440.768 165.257 440.189 164.047Z" fill="#022B66"/>
<path d="M346.857 159.743L347.59 159.587" stroke="#FFB000" stroke-width="0.46" stroke-linejoin="round"/>
<path d="M349.097 159.306C360.166 157.501 371.705 160.725 382.923 159.364C387.642 158.795 392.559 157.435 397.081 158.597" stroke="#FFB000" stroke-width="0.46" stroke-linejoin="round" stroke-dasharray="1.86 1.86"/>
<path d="M397.814 158.812C398.053 158.886 398.283 158.968 398.522 159.067" stroke="#FFB000" stroke-width="0.46" stroke-linejoin="round"/>
<path d="M373.105 159.982C373.443 165.988 373.476 172.006 373.204 178.015" stroke="#FFB000" stroke-width="0.46" stroke-linejoin="round" stroke-dasharray="1.83 1.83"/>
<path d="M437.232 159.257C432.084 154.475 420.257 158.77 413.899 161.731C407.903 164.55 402.121 167.799 396.348 171.048L355.554 191.554C355.554 191.554 357.3 205.233 359.911 206.684C362.522 208.136 431.129 184.282 431.129 184.282C431.129 184.282 453.408 174.264 437.232 159.257Z" fill="#00368B"/>
<path d="M360.57 205.085C384.9 197.425 407.673 190.243 431.401 180.934C433.767 180.121 436.016 178.998 438.089 177.595C440.187 176.175 441.662 174.002 442.207 171.526" stroke="#FFB000" stroke-width="0.46" stroke-linejoin="round" stroke-dasharray="1.83 1.83"/>
<path opacity="0.37" d="M421.246 181.338C415.612 182.105 410.143 184.018 404.469 184.273C402.653 184.412 400.827 184.188 399.099 183.614C397.159 182.746 395.391 181.536 393.877 180.044L388.112 174.989L355.554 191.332C355.554 191.332 357.3 205.011 359.911 206.462C362.522 207.913 431.129 184.059 431.129 184.059C431.995 183.646 432.838 183.189 433.658 182.69C429.927 180.959 425.405 180.761 421.246 181.338Z" fill="#022B66"/>
<path d="M398.671 190.829C397.973 190.595 397.24 190.483 396.504 190.499C394.207 190.581 392.213 192.197 390.929 194.102C389.646 195.917 389.024 198.117 389.166 200.335C389.685 205.695 394.544 206.478 399.247 206.47C399.919 204.5 400.337 202.453 400.491 200.377C400.733 197.089 400.105 193.796 398.671 190.829Z" fill="#FCB4D2"/>
<path d="M430.767 199.799C429.276 196.847 426.253 194.852 423.058 194.028C419.815 193.291 416.464 193.163 413.174 193.648C410.25 193.97 407.22 194.473 404.427 193.516C402.426 192.848 400.606 191.471 398.662 190.828C400.097 193.795 400.725 197.089 400.482 200.376C400.329 202.452 399.911 204.5 399.239 206.47C401.248 206.47 403.233 206.33 404.839 206.338C411.684 206.396 418.437 209.034 425.224 208.168C427.62 207.863 430.231 206.882 431.178 204.664C431.462 203.871 431.572 203.026 431.501 202.187C431.43 201.348 431.179 200.533 430.767 199.799Z" fill="#D38C0D"/>
<path d="M430.767 199.8C429.276 196.848 426.253 194.852 423.058 194.028C420.607 193.427 418.076 193.233 415.563 193.451C414.536 198.401 415.298 203.555 417.712 207.995C420.201 208.374 422.728 208.432 425.232 208.169C427.629 207.864 430.24 206.882 431.187 204.664C431.469 203.871 431.578 203.026 431.505 202.186C431.433 201.347 431.181 200.533 430.767 199.8Z" fill="#FFB000"/>
<path d="M316.515 158.16C321.662 153.378 333.49 157.674 339.84 160.634C345.844 163.454 351.626 166.703 357.399 169.951L396.109 189.188C396.109 189.188 393.992 203.84 391.373 205.299C388.754 206.759 322.593 183.16 322.593 183.16C322.593 183.16 300.339 173.167 316.515 158.16Z" fill="#00368B"/>
<path d="M310.89 166.785C313.097 171.023 315.37 175.368 318.945 178.534C323.063 182.204 328.54 183.943 333.819 185.584L353.858 191.793L390.146 203.444" stroke="#FFB000" stroke-width="0.46" stroke-linejoin="round" stroke-dasharray="1.83 1.83"/>
</g>
<defs>
<clipPath id="clip0_1_219">
<rect width="572" height="368" fill="white" transform="translate(0 0.5)"/>
</clipPath>
</defs>
</svg>
